<?xml version="1.0" encoding="UTF-8" standalone="no"?>
<!-- Created with Inkscape (http://www.inkscape.org/) -->

<svg
   width="512"
   height="512"
   viewBox="0 0 135.46667 135.46666"
   version="1.1"
   id="svg1"
   inkscape:version="1.4 (e7c3feb100, 2024-10-09)"
   sodipodi:docname="demoplayer-logo.svg"
   xml:space="preserve"
   xmlns:inkscape="http://www.inkscape.org/namespaces/inkscape"
   xmlns:sodipodi="http://sodipodi.sourceforge.net/DTD/sodipodi-0.dtd"
   xmlns="http://www.w3.org/2000/svg"
   xmlns:svg="http://www.w3.org/2000/svg"><sodipodi:namedview
     id="namedview1"
     pagecolor="#000000"
     bordercolor="#000000"
     borderopacity="0.25"
     inkscape:showpageshadow="2"
     inkscape:pageopacity="0.0"
     inkscape:pagecheckerboard="true"
     inkscape:deskcolor="#d1d1d1"
     inkscape:document-units="px"
     inkscape:zoom="1"
     inkscape:cx="146.5"
     inkscape:cy="321.49999"
     inkscape:window-width="2560"
     inkscape:window-height="1371"
     inkscape:window-x="0"
     inkscape:window-y="0"
     inkscape:window-maximized="1"
     inkscape:current-layer="svg1" /><defs
     id="defs1"><inkscape:path-effect
       effect="powermask"
       id="path-effect13"
       is_visible="true"
       lpeversion="1"
       uri="#mask-powermask-path-effect13"
       invert="false"
       hide_mask="false"
       background="false"
       background_color="#2dff72ff"
       background_color_opacity_LPE="1" /><inkscape:path-effect
       effect="powermask"
       id="path-effect8"
       is_visible="true"
       lpeversion="1"
       uri="#mask-powermask-path-effect8"
       invert="false"
       hide_mask="false"
       background="true"
       background_color="#ffffffff" /><inkscape:path-effect
       effect="powermask"
       id="path-effect2"
       is_visible="true"
       lpeversion="1"
       uri="#mask-powermask-path-effect2"
       invert="false"
       hide_mask="false"
       background="true"
       background_color="#ffffffff" /><inkscape:path-effect
       effect="powermask"
       id="path-effect6"
       is_visible="true"
       lpeversion="1"
       uri="#mask-powermask-path-effect6"
       invert="false"
       hide_mask="false"
       background="true"
       background_color="#ffffffff" /><inkscape:path-effect
       effect="powermask"
       id="path-effect4"
       is_visible="true"
       lpeversion="1"
       uri="#mask-powermask-path-effect4"
       invert="false"
       hide_mask="false"
       background="true"
       background_color="#ffffffff" /><filter
       id="mask-powermask-path-effect4_inverse"
       inkscape:label="filtermask-powermask-path-effect4"
       style="color-interpolation-filters:sRGB"
       height="100"
       width="100"
       x="-50"
       y="-50"><feColorMatrix
         id="mask-powermask-path-effect4_primitive1"
         values="1"
         type="saturate"
         result="fbSourceGraphic" /><feColorMatrix
         id="mask-powermask-path-effect4_primitive2"
         values="-1 0 0 0 1 0 -1 0 0 1 0 0 -1 0 1 0 0 0 1 0 "
         in="fbSourceGraphic" /></filter><mask
       maskUnits="userSpaceOnUse"
       id="mask-powermask-path-effect6"><path
         id="path6"
         style="fill:#ffffff;fill-opacity:1"
         d="M -15.77433,29.998585 H 55.990997 V 101.76391 H -15.77433 Z" /><g
         id="g7"
         transform="matrix(0.35277776,0,0,0.35277776,-23.240999,22.531917)"
         style=""><circle
           id="circle6"
           transform="translate(85.559997,85.559997)"
           cx="37.32"
           cy="37.32"
           fill="#000000"
           fill-rule="evenodd"
           stroke="none"
           stroke-width="9.6"
           stroke-linecap="square"
           stroke-linejoin="bevel"
           r="37.32" /><rect
           id="rect6"
           transform="translate(-5.493164e-6,114.33969)"
           fill="#000000"
           fill-rule="evenodd"
           stroke="none"
           stroke-width="9.6"
           stroke-linecap="square"
           stroke-linejoin="bevel"
           width="245.76001"
           height="17.080616"
           x="0"
           y="0" /><rect
           id="rect7"
           transform="rotate(90,65.710155,65.71015)"
           fill="#000000"
           fill-rule="evenodd"
           stroke-opacity="0"
           stroke="#000000"
           stroke-width="0"
           stroke-linecap="square"
           stroke-linejoin="bevel"
           width="245.76001"
           height="17.080616"
           x="0"
           y="0" /></g></mask><clipPath
       clipPathUnits="userSpaceOnUse"
       id="clipPath9"><path
         id="path9"
         fill="#5b7a8c"
         fill-rule="evenodd"
         stroke="none"
         stroke-width="3.38667"
         stroke-linecap="square"
         stroke-linejoin="bevel"
         d="M -3.5598712,73.223895 C 18.279506,75.499383 33.549776,65.423873 45.440855,55.380395 l 3.450167,13.864167 -24.299228,22.182666 -28.2786666,-2.286 c -0.4797771,-1.749777 -0.4374451,-7.055554 0.1270014,-15.917333 z"
         sodipodi:nodetypes="cccccc" /></clipPath><mask
       maskUnits="userSpaceOnUse"
       id="mask-powermask-path-effect13"><path
         id="path10"
         style="fill:#ffffff;fill-opacity:1"
         d="M -15.77433,29.998585 H 55.990997 V 101.76391 H -15.77433 Z" /><g
         id="g11"
         transform="matrix(0.35277776,0,0,0.35277776,-23.240999,22.531917)"
         style=""><path
           id="circle10"
           transform="translate(85.559997,85.559997)"
           d="M 74.639999,37.32 A 37.32,37.32 0 0 1 37.32,74.639999 37.32,37.32 0 0 1 0,37.32 37.32,37.32 0 0 1 37.32,0 37.32,37.32 0 0 1 74.639999,37.32 Z" /><path
           id="rect10"
           transform="translate(-5.493164e-6,114.33969)"
           d="M 0,0 H 245.76001 V 17.080616 H 0 Z" /><path
           id="rect11"
           transform="rotate(90,65.710155,65.71015)"
           d="M 0,0 H 245.76001 V 17.080616 H 0 Z" /></g></mask><filter
       id="mask-powermask-path-effect8_inverse"
       inkscape:label="filtermask-powermask-path-effect8"
       style="color-interpolation-filters:sRGB"
       height="100"
       width="100"
       x="-50"
       y="-50"><feColorMatrix
         id="mask-powermask-path-effect8_primitive1"
         values="1"
         type="saturate"
         result="fbSourceGraphic" /><feColorMatrix
         id="mask-powermask-path-effect8_primitive2"
         values="-1 0 0 0 1 0 -1 0 0 1 0 0 -1 0 1 0 0 0 1 0 "
         in="fbSourceGraphic" /></filter><filter
       id="filter2"
       inkscape:label="filtermask-powermask-path-effect4"
       style="color-interpolation-filters:sRGB"
       height="100"
       width="100"
       x="-50"
       y="-50"><feColorMatrix
         id="feColorMatrix1"
         values="1"
         type="saturate"
         result="fbSourceGraphic" /><feColorMatrix
         id="feColorMatrix2"
         values="-1 0 0 0 1 0 -1 0 0 1 0 0 -1 0 1 0 0 0 1 0 "
         in="fbSourceGraphic" /></filter><filter
       id="filter4"
       inkscape:label="filtermask-powermask-path-effect4"
       style="color-interpolation-filters:sRGB"
       height="100"
       width="100"
       x="-50"
       y="-50"><feColorMatrix
         id="feColorMatrix3"
         values="1"
         type="saturate"
         result="fbSourceGraphic" /><feColorMatrix
         id="feColorMatrix4"
         values="-1 0 0 0 1 0 -1 0 0 1 0 0 -1 0 1 0 0 0 1 0 "
         in="fbSourceGraphic" /></filter><mask
       maskUnits="userSpaceOnUse"
       id="mask25"><g
         id="g28"
         transform="matrix(0.35277777,0,0,0.35277777,-23.240999,22.531917)"><rect
           style="display:inline;fill:#fffbf8;fill-opacity:1;stroke:none;stroke-width:0;stroke-linejoin:round;stroke-dasharray:none"
           id="rect26"
           width="209.27553"
           height="219.22523"
           x="-15.471115"
           y="50.578503"
           ry="14.339805"
           transform="rotate(-13.628771)" /><circle
           id="circle26"
           transform="translate(85.559997,85.559997)"
           cx="37.32"
           cy="37.32"
           fill="#000000"
           fill-rule="evenodd"
           stroke="none"
           stroke-width="9.6"
           stroke-linecap="square"
           stroke-linejoin="bevel"
           r="37.32" /><rect
           id="rect27"
           transform="translate(-5.493164e-6,114.33969)"
           fill="#000000"
           fill-rule="evenodd"
           stroke="none"
           stroke-width="9.6"
           stroke-linecap="square"
           stroke-linejoin="bevel"
           width="245.76001"
           height="17.080616"
           x="0"
           y="0" /><rect
           id="rect28"
           transform="rotate(90,65.710155,65.71015)"
           fill="#000000"
           fill-rule="evenodd"
           stroke-opacity="0"
           stroke="#000000"
           stroke-width="0"
           stroke-linecap="square"
           stroke-linejoin="bevel"
           width="245.76001"
           height="17.080616"
           x="0"
           y="0" /></g></mask><mask
       maskUnits="userSpaceOnUse"
       id="mask32"><g
         id="g35"
         transform="matrix(0.35277777,0,0,0.35277777,-23.240999,22.531917)"><rect
           style="display:inline;fill:#fffbf8;fill-opacity:1;stroke:none;stroke-width:0;stroke-linejoin:round;stroke-dasharray:none"
           id="rect33"
           width="209.27553"
           height="222.03944"
           x="-15.471115"
           y="47.764301"
           ry="14.523885"
           transform="rotate(-13.628771)" /><circle
           id="circle33"
           transform="translate(85.559997,85.559997)"
           cx="37.32"
           cy="37.32"
           fill="#000000"
           fill-rule="evenodd"
           stroke="none"
           stroke-width="9.6"
           stroke-linecap="square"
           stroke-linejoin="bevel"
           r="37.32" /><rect
           id="rect34"
           transform="translate(-5.493164e-6,114.33969)"
           fill="#000000"
           fill-rule="evenodd"
           stroke="none"
           stroke-width="9.6"
           stroke-linecap="square"
           stroke-linejoin="bevel"
           width="245.76001"
           height="17.080616"
           x="0"
           y="0" /><rect
           id="rect35"
           transform="rotate(90,65.710155,65.71015)"
           fill="#000000"
           fill-rule="evenodd"
           stroke-opacity="0"
           stroke="#000000"
           stroke-width="0"
           stroke-linecap="square"
           stroke-linejoin="bevel"
           width="245.76001"
           height="17.080616"
           x="0"
           y="0" /></g></mask><clipPath
       clipPathUnits="userSpaceOnUse"
       id="clipPath37"><path
         id="path37"
         fill="#f08149"
         fill-rule="evenodd"
         stroke="none"
         stroke-width="3.34872"
         stroke-linecap="square"
         stroke-linejoin="bevel"
         d="M -7.1751515,101.42905 C 28.19097,93.059594 53.512495,87.45897 48.686654,36.004895 L 58.967482,77.726587 29.836659,109.88969 Z"
         sodipodi:nodetypes="ccccc"
         clip-path="none" /></clipPath><clipPath
       clipPathUnits="userSpaceOnUse"
       id="clipPath38"><path
         id="path38"
         fill="#f6b98a"
         fill-rule="evenodd"
         stroke="none"
         stroke-width="3.43205"
         stroke-linecap="square"
         stroke-linejoin="bevel"
         d="m -18.868831,69.266542 c 9.8617903,-27.69562 23.169665,-32.830424 40.020269,-35.394933 3.648788,-12.867811 -37.978659,-14.344674 -66.84884,2.30276 -3.206833,-8.492634 5.736002,2.538036 26.828571,33.092173 z"
         sodipodi:nodetypes="cccc"
         clip-path="none"
         style="display:inline" /></clipPath></defs><circle
     id="shape0"
     fill="#ef9849"
     fill-rule="evenodd"
     stroke="none"
     stroke-width="3.38667"
     stroke-linecap="square"
     stroke-linejoin="bevel"
     mask="none"
     cx="20.108334"
     cy="65.881248"
     r="34.882664"
     style="display:none"
     transform="matrix(1.554008,0.37678021,-0.37678021,1.554008,51.836872,-52.544453)" /><path
     d="M 59.167964,1.824178 C 35.276069,1.4696211 13.416767,16.519487 5.558317,39.676131 l 33.996374,8.242907 C 43.164305,40.843648 50.448897,36.402189 58.391784,36.433951 L 66.634692,2.4370605 C 64.132862,2.0626063 61.639539,1.8608563 59.167964,1.824178 Z M 76.034118,4.5609619 67.768989,38.648803 c 7.11367,3.609052 11.576574,10.928647 11.526945,18.905306 l 34.088356,8.265128 C 117.4607,39.039342 101.70728,13.202052 76.034118,4.5609619 Z M 3.2876546,49.0399 C -0.70652372,75.726084 14.974566,101.44488 40.526725,110.11627 L 48.769632,76.119901 C 41.694242,72.510287 37.252783,65.225694 37.284545,57.282808 Z M 76.970495,66.904959 C 73.361024,73.98055 66.076403,78.422227 58.133402,78.390563 l -8.242391,33.996377 c 26.686005,3.99391 52.404499,-11.68713 61.075859,-37.239073 z"
     style="display:inline;fill:#ef9849;fill-rule:evenodd;stroke-width:3.38667;stroke-linecap:square;stroke-linejoin:bevel"
     id="path15" /><g
     id="g15"
     transform="matrix(0.54821946,0.13291968,-0.13291968,0.54821946,7.2305936,-26.286424)"
     style="display:none"><ellipse
       style="display:inline;fill:#ffffff;fill-opacity:1;stroke-width:2.82911;stroke-linejoin:round"
       id="ellipse13"
       cx="90.369553"
       cy="147.90991"
       rx="100.16792"
       ry="98.966103"
       transform="rotate(-13.628771)" /><circle
       id="circle13"
       transform="translate(85.559997,85.559997)"
       cx="37.32"
       cy="37.32"
       fill="#000000"
       fill-rule="evenodd"
       stroke="none"
       stroke-width="9.6"
       stroke-linecap="square"
       stroke-linejoin="bevel"
       r="37.32" /><rect
       id="rect14"
       transform="translate(-5.493164e-6,114.33969)"
       fill="#000000"
       fill-rule="evenodd"
       stroke="none"
       stroke-width="9.6"
       stroke-linecap="square"
       stroke-linejoin="bevel"
       width="245.76001"
       height="17.080616"
       x="0"
       y="0" /><rect
       id="rect15"
       transform="rotate(90,65.710155,65.71015)"
       fill="#000000"
       fill-rule="evenodd"
       stroke-opacity="0"
       stroke="#000000"
       stroke-width="0"
       stroke-linecap="square"
       stroke-linejoin="bevel"
       width="245.76001"
       height="17.080616"
       x="0"
       y="0" /></g><g
     id="g3"
     inkscape:label="TFLogo"
     transform="matrix(1.0592941,0,0,1.0592941,1.7627427,1.5403204)"
     style="display:inline"><g
       id="g2"
       transform="matrix(0.52656158,0,0,0.52656158,-15.12902,-7.372153)"
       style="display:inline"><path
         id="circle35"
         mask="url(#mask32)"
         style="display:inline;fill:#f08149;fill-rule:evenodd;stroke-width:3.38667;stroke-linecap:square;stroke-linejoin:bevel;fill-opacity:1"
         transform="matrix(2.7860411,0.67549535,-0.67549535,2.7860411,118.50512,-82.963173)"
         d="M 54.990997,65.881248 A 34.882664,34.882664 0 0 1 20.108334,100.76391 34.882664,34.882664 0 0 1 -14.77433,65.881248 34.882664,34.882664 0 0 1 20.108334,30.998585 34.882664,34.882664 0 0 1 54.990997,65.881248 Z"
         clip-path="url(#clipPath37)" /><path
         id="circle36"
         mask="url(#mask32)"
         style="display:inline;fill:#f6b98a;fill-opacity:1;fill-rule:evenodd;stroke-width:3.38667;stroke-linecap:square;stroke-linejoin:bevel"
         transform="matrix(2.7860411,0.67549535,-0.67549535,2.7860411,118.50512,-82.963173)"
         d="M 54.990997,65.881248 A 34.882664,34.882664 0 0 1 20.108334,100.76391 34.882664,34.882664 0 0 1 -14.77433,65.881248 34.882664,34.882664 0 0 1 20.108334,30.998585 34.882664,34.882664 0 0 1 54.990997,65.881248 Z"
         clip-path="url(#clipPath38)"
         inkscape:label="circle36" /><path
         id="path13"
         fill="#f6b98a"
         fill-rule="evenodd"
         stroke="none"
         stroke-width="9.83886"
         stroke-linecap="square"
         stroke-linejoin="bevel"
         d="M 19.146555,97.270451 C 65.33017,26.770909 105.87499,21.454542 154.55378,25.692221 173.4116,-7.6932903 58.433436,-39.92704 -33.245338,-13.048275 -36.442971,-38.875307 -18.979033,-2.1025623 19.146555,97.270451 Z"
         sodipodi:nodetypes="cccc"
         clip-path="none"
         style="display:none" /><path
         id="path14"
         transform="translate(30,50.235552)"
         fill="#f08149"
         fill-rule="evenodd"
         stroke="none"
         stroke-width="9.6"
         stroke-linecap="square"
         stroke-linejoin="bevel"
         d="M 0,144.54 C 104.185,145.112 178.515,146.613 199.827,0 l 0.46,123.183 -102.8857,69.93 z"
         sodipodi:nodetypes="ccccc"
         clip-path="none"
         style="display:none" /></g></g><g
     id="g8"
     inkscape:label="Arrow"
     transform="matrix(1.5762046,0,0,1.5762046,70.260377,-5.961707)"><path
       id="shape0-60"
       fill="#3ba679"
       fill-rule="evenodd"
       stroke="#41a675"
       stroke-width="3.38667"
       stroke-linecap="butt"
       stroke-linejoin="round"
       d="M 2.1167544,45.603587 38.100087,65.246253 2.1167554,86.15892 Z"
       sodipodi:nodetypes="cccc" /><path
       id="path8"
       fill="#3ba679"
       fill-rule="evenodd"
       stroke="#41a675"
       stroke-width="3.38667"
       stroke-linecap="butt"
       stroke-linejoin="round"
       d="M 2.1167544,45.603587 38.100087,65.246253 2.1167554,86.15892 Z"
       sodipodi:nodetypes="cccc"
       style="opacity:0.532;fill:#5b7a8c;fill-opacity:1;stroke:#5b7a8c;stroke-opacity:1"
       clip-path="url(#clipPath9)" /></g></svg>
